<svg xmlns="http://www.w3.org/2000/svg" viewBox="0 0 1280 700" width="1280" height="700" font-family="Arial, sans-serif">
  <rect width="1280" height="700" fill="#FFF8F5"/>
  <rect width="1280" height="44" fill="#E5E7EB"/>
  <circle cx="24" cy="22" r="6" fill="#F0512E"/><circle cx="46" cy="22" r="6" fill="#FFC857"/><circle cx="68" cy="22" r="6" fill="#1B2A4A"/>
  <rect x="110" y="10" width="440" height="24" rx="12" fill="#FFFFFF"/>
  <text x="130" y="27" font-size="13" fill="#334155">basera.pk/hostel-groups/royal-group</text>

  <!-- group banner -->
  <rect x="0" y="44" width="1280" height="160" fill="#1B2A4A"/>
  <rect x="64" y="80" width="88" height="88" rx="16" fill="#FFFFFF"/>
  <path d="M108 100 132 119.5V150a5 5 0 0 1-5 5h-15v-27h-20v27h-15a5 5 0 0 1-5-5V119.5L108 100Z" fill="#FF6B4A"/>
  <text x="172" y="112" font-size="26" font-weight="800" fill="#FFFFFF">Royal Group of Hostels</text>
  <rect x="172" y="126" width="96" height="24" rx="12" fill="#FFC857"/>
  <text x="186" y="143" font-size="11" font-weight="700" fill="#182338">Verified Group</text>
  <text x="172" y="172" font-size="13" fill="#D7DEEC">3 branches · Islamabad · Lahore · Est. 2019</text>

  <text x="64" y="248" font-size="20" font-weight="800" fill="#182338">Branches</text>

  <g transform="translate(64,266)">
    <rect width="368" height="200" rx="16" fill="#FFFFFF" stroke="#E5E7EB"/>
    <rect x="16" y="16" width="336" height="110" rx="10" fill="#FFE2D6"/>
    <text x="16" y="150" font-size="15" font-weight="700" fill="#182338">Royal Hostel — F-10</text>
    <text x="16" y="170" font-size="12" fill="#64748B">Islamabad · Near NUST</text>
    <text x="16" y="190" font-size="13" font-weight="800" fill="#F0512E">From PKR 16,000/mo</text>
  </g>
  <g transform="translate(456,266)">
    <rect width="368" height="200" rx="16" fill="#FFFFFF" stroke="#E5E7EB"/>
    <rect x="16" y="16" width="336" height="110" rx="10" fill="#D7DEEC"/>
    <text x="16" y="150" font-size="15" font-weight="700" fill="#182338">Royal Hostel — G-9</text>
    <text x="16" y="170" font-size="12" fill="#64748B">Islamabad · Near FAST</text>
    <text x="16" y="190" font-size="13" font-weight="800" fill="#F0512E">From PKR 15,500/mo</text>
  </g>
  <g transform="translate(848,266)">
    <rect width="368" height="200" rx="16" fill="#FFFFFF" stroke="#E5E7EB"/>
    <rect x="16" y="16" width="336" height="110" rx="10" fill="#FFF3C4"/>
    <text x="16" y="150" font-size="15" font-weight="700" fill="#182338">Royal Hostel — Lahore</text>
    <text x="16" y="170" font-size="12" fill="#64748B">Lahore · Near Punjab University</text>
    <text x="16" y="190" font-size="13" font-weight="800" fill="#F0512E">From PKR 14,000/mo</text>
  </g>

  <text x="640" y="670" font-size="11" fill="#94A3B8" text-anchor="middle">Design mockup — illustrative UI, not a live screenshot</text>
</svg>
