<svg xmlns="http://www.w3.org/2000/svg" viewBox="0 0 1280 900" width="1280" height="900" font-family="Arial, sans-serif">
  <rect width="1280" height="900" fill="#FFF8F5"/>

  <!-- browser chrome -->
  <rect width="1280" height="44" fill="#E5E7EB"/>
  <circle cx="24" cy="22" r="6" fill="#F0512E"/>
  <circle cx="46" cy="22" r="6" fill="#FFC857"/>
  <circle cx="68" cy="22" r="6" fill="#1B2A4A"/>
  <rect x="110" y="10" width="360" height="24" rx="12" fill="#FFFFFF"/>
  <text x="130" y="27" font-size="13" fill="#334155">basera.pk</text>

  <!-- nav -->
  <rect x="0" y="44" width="1280" height="72" fill="#FFFFFF"/>
  <rect x="48" y="66" width="34" height="34" rx="9" fill="#1B2A4A"/>
  <path d="M65 76 73.5 83.3V93.5a1.7 1.7 0 0 1-1.7 1.7h-5.3V88h-6.7v7.2h-5.3A1.7 1.7 0 0 1 53 93.5V83.3L65 76Z" fill="#FF6B4A"/>
  <text x="96" y="90" font-size="22" font-weight="800" fill="#182338">Basera</text>
  <text x="640" y="86" font-size="14" fill="#334155">Hostels</text>
  <text x="720" y="86" font-size="14" fill="#334155">Rooms</text>
  <text x="800" y="86" font-size="14" fill="#334155">Compare Cities</text>
  <text x="940" y="86" font-size="14" fill="#334155">EN / اردو</text>
  <rect x="1040" y="64" width="100" height="38" rx="10" fill="#FF6B4A"/>
  <text x="1062" y="88" font-size="13" font-weight="700" fill="#FFFFFF">Sign Up</text>
  <rect x="1150" y="64" width="80" height="38" rx="10" fill="none" stroke="#1B2A4A"/>
  <text x="1168" y="88" font-size="13" font-weight="700" fill="#1B2A4A">Log In</text>

  <!-- hero -->
  <rect x="0" y="116" width="1280" height="300" fill="#1B2A4A"/>
  <text x="80" y="205" font-size="42" font-weight="800" fill="#FFFFFF">Find your Basera.</text>
  <text x="80" y="240" font-size="17" fill="#D7DEEC">Verified hostels, PGs, and rooms near Pakistan's major universities.</text>
  <rect x="80" y="270" width="760" height="56" rx="28" fill="#FFFFFF"/>
  <text x="106" y="304" font-size="14" fill="#94A3B8">Search city, university, or area (e.g. NUST, Islamabad)</text>
  <rect x="700" y="278" width="126" height="40" rx="20" fill="#FF6B4A"/>
  <text x="726" y="303" font-size="13" font-weight="700" fill="#FFFFFF">Search</text>
  <rect x="80" y="345" width="150" height="30" rx="15" fill="#243B60"/>
  <text x="98" y="365" font-size="12" fill="#FFE2D6">Verified &amp; Safe</text>
  <rect x="240" y="345" width="180" height="30" rx="15" fill="#243B60"/>
  <text x="258" y="365" font-size="12" fill="#FFE2D6">Escrow-Protected Rent</text>

  <!-- featured section -->
  <text x="80" y="465" font-size="22" font-weight="800" fill="#182338">Featured Rooms and PGs</text>
  <text x="80" y="488" font-size="13" fill="#64748B">Live listings pulled from Basera's marketplace</text>

  <g id="room-card-1" transform="translate(80,510)">
    <rect width="360" height="260" rx="16" fill="#FFFFFF" stroke="#E5E7EB"/>
    <rect x="16" y="16" width="328" height="150" rx="12" fill="#FFE2D6"/>
    <path d="M180 60 210 85.6V125a4 4 0 0 1-4 4h-12V107h-16v22h-12a4 4 0 0 1-4-4V85.6L180 60Z" fill="#FF6B4A"/>
    <rect x="16" y="178" width="90" height="22" rx="11" fill="#FFC857"/>
    <text x="28" y="193" font-size="11" font-weight="700" fill="#182338">Verified</text>
    <text x="16" y="228" font-size="15" font-weight="700" fill="#182338">Single Room, F-10</text>
    <text x="16" y="248" font-size="12" fill="#64748B">Near NUST · Islamabad</text>
    <text x="230" y="248" font-size="15" font-weight="800" fill="#F0512E">PKR 18,000/mo</text>
  </g>

  <g id="room-card-2" transform="translate(460,510)">
    <rect width="360" height="260" rx="16" fill="#FFFFFF" stroke="#E5E7EB"/>
    <rect x="16" y="16" width="328" height="150" rx="12" fill="#D7DEEC"/>
    <path d="M180 60 210 85.6V125a4 4 0 0 1-4 4h-12V107h-16v22h-12a4 4 0 0 1-4-4V85.6L180 60Z" fill="#1B2A4A"/>
    <rect x="16" y="178" width="90" height="22" rx="11" fill="#FFC857"/>
    <text x="28" y="193" font-size="11" font-weight="700" fill="#182338">Verified</text>
    <text x="16" y="228" font-size="15" font-weight="700" fill="#182338">Shared Room, G-9</text>
    <text x="16" y="248" font-size="12" fill="#64748B">Near FAST · Islamabad</text>
    <text x="230" y="248" font-size="15" font-weight="800" fill="#F0512E">PKR 12,500/mo</text>
  </g>

  <g id="room-card-3" transform="translate(840,510)">
    <rect width="360" height="260" rx="16" fill="#FFFFFF" stroke="#E5E7EB"/>
    <rect x="16" y="16" width="328" height="150" rx="12" fill="#FFF3C4"/>
    <path d="M180 60 210 85.6V125a4 4 0 0 1-4 4h-12V107h-16v22h-12a4 4 0 0 1-4-4V85.6L180 60Z" fill="#E0A63A"/>
    <rect x="16" y="178" width="90" height="22" rx="11" fill="#FFC857"/>
    <text x="28" y="193" font-size="11" font-weight="700" fill="#182338">Verified</text>
    <text x="16" y="228" font-size="15" font-weight="700" fill="#182338">Girls Hostel, Model Town</text>
    <text x="16" y="248" font-size="12" fill="#64748B">Near Punjab University · Lahore</text>
    <text x="230" y="248" font-size="15" font-weight="800" fill="#F0512E">PKR 15,000/mo</text>
  </g>

  <!-- get notified strip -->
  <rect x="80" y="800" width="1120" height="70" rx="16" fill="#FFE2D6"/>
  <text x="106" y="832" font-size="14" font-weight="700" fill="#182338">Get notified about new listings and price drops</text>
  <rect x="700" y="815" width="300" height="38" rx="10" fill="#FFFFFF"/>
  <text x="716" y="838" font-size="12" fill="#94A3B8">your@email.com</text>
  <rect x="1010" y="815" width="150" height="38" rx="10" fill="#FF6B4A"/>
  <text x="1040" y="838" font-size="12" font-weight="700" fill="#FFFFFF">Notify Me</text>

  <text x="640" y="892" font-size="11" fill="#94A3B8" text-anchor="middle">Design mockup — illustrative UI, not a live screenshot</text>
</svg>
